<svg xmlns="http://www.w3.org/2000/svg" width="400" height="240" viewBox="0 0 400 240">
<style>
text{font-family:'JetBrains Mono','Fira Code',Consolas,'Courier New',monospace;font-size:13px;fill:#c9d1d9}
.g{fill:#00ff41}.d{fill:#8b949e}.b{font-weight:700}
</style>
<rect x="0.5" y="0.5" width="399" height="239" rx="10" fill="#0d1117" stroke="#30363d"/>
<path d="M0.5 34 V10.5 a10 10 0 0 1 10 -10 H389.5 a10 10 0 0 1 10 10 V34 z" fill="#161b22"/>
<circle cx="20" cy="18" r="5" fill="#ff5f56"/><circle cx="38" cy="18" r="5" fill="#ffbd2e"/><circle cx="56" cy="18" r="5" fill="#27c93f"/>
<text x="200.0" y="22" text-anchor="middle" class="d" style="font-size:12px">telemetry.sh</text>
<text x="20" y="58"><tspan class="g">$</tspan> ./stats --user galile0ff</text>
<text x="20" y="84"><tspan class="g">[+]</tspan> repo</text>
<text x="380" y="84" text-anchor="end" class="g b">—</text>
<text x="20" y="106"><tspan class="g">[+]</tspan> star</text>
<text x="380" y="106" text-anchor="end" class="g b">—</text>
<text x="20" y="128"><tspan class="g">[+]</tspan> takipçi</text>
<text x="380" y="128" text-anchor="end" class="g b">—</text>
<text x="20" y="150"><tspan class="g">[+]</tspan> commit (12 ay)</text>
<text x="380" y="150" text-anchor="end" class="g b">—</text>
<text x="20" y="172"><tspan class="g">[+]</tspan> pull request</text>
<text x="380" y="172" text-anchor="end" class="g b">—</text>
<text x="20" y="194"><tspan class="g">[+]</tspan> issue</text>
<text x="380" y="194" text-anchor="end" class="g b">—</text>
<text x="20" y="216"><tspan class="g">[+]</tspan> toplam katkı</text>
<text x="380" y="216" text-anchor="end" class="g b">—</text>
<text x="20" y="230" class="d" style="font-size:10px"># güncellendi: 2026-09-29</text>
</svg>
